#!OML:ASF H:\ManfredETheater\Project 1\Capture day 1\Session 1\subject.ASF
:FULLY-SPECIFIED
:DEGREES
275
root 0.249562 17.109 -18.5903 -163.584 -1.45673 177.613
lowerback 3.58438 0.237723 -0.645824
upperback -4.70071 0.203566 1.59618
thorax -6.92039 0.10781 2.01988
lowerneck -17.2003 -2.1928 -3.0443
upperneck 11.3623 -2.37204 0.910079
head 6.30717 -1.2073 0.538895
rclavicle 2.08724e-015 -3.02153e-014
rhumerus -37.5711 6.96631 -91.8136
rradius 50.6954
rwrist -4.06857
rhand -20.5043 -7.00507
rfingers 7.12502
rthumb 5.85291 -36.9042
lclavicle 2.08724e-015 -3.02153e-014
lhumerus -43.3518 0.350898 91.515
lradius 42.3949
lwrist -4.89619
lhand -12.4185 3.75625
lfingers 7.12502
lthumb 13.6537 33.2884
rfemur -17.7939 -3.56111 19.7875
rtibia 40.3712
rfoot -31.0415 -17.8473
rtoes -34.8689
lfemur -19.6725 -5.76585 -24.7151
ltibia 42.0157
lfoot -34.4342 2.54485
ltoes 7.02779
276
root 0.240324 17.0777 -18.6704 -163.376 -1.48588 177.378
lowerback 3.86716 0.212152 -0.849785
upperback -4.70488 0.157648 1.51666
thorax -7.08789 0.0981141 2.05655
lowerneck -17.2166 -2.19424 -3.02243
upperneck 11.0319 -2.38242 0.953073
head 6.20416 -1.20583 0.549307
rclavicle 1.68967e-015 -3.97569e-015
rhumerus -37.7077 7.21929 -92.0026
rradius 51.6568
rwrist -4.26976
rhand -20.5366 -6.81248
rfingers 7.12502
rthumb 5.82181 -36.7125
lclavicle 1.68967e-015 -3.97569e-015
lhumerus -43.5472 -0.383666 91.8686
lradius 43.3043
lwrist -4.46398
lhand -12.6276 3.6126
lfingers 7.12502
lthumb 13.4522 33.1582
rfemur -18.3594 -4.04131 19.5321
rtibia 41.6632
rfoot -31.0109 -17.6115
rtoes -35.1408
lfemur -19.5938 -5.51121 -24.9797
ltibia 42.0651
lfoot -34.652 2.2523
ltoes 6.66069
277
root 0.23146 17.0459 -18.7501 -163.163 -1.51124 177.144
lowerback 4.18337 0.18357 -1.04832
upperback -4.70502 0.106484 1.43206
thorax -7.27034 0.0860391 2.08576
lowerneck -17.2483 -2.19097 -2.99602
upperneck 10.6852 -2.38894 1.00491
head 6.09864 -1.20201 0.562092
rclavicle -6.65929e-015 -1.43125e-014
rhumerus -37.8623 7.44484 -92.1822
rradius 52.6644
rwrist -4.45431
rhand -20.5927 -6.504
rfingers 7.12502
rthumb 5.7676 -36.4055
lclavicle -6.65929e-015 -1.43125e-014
lhumerus -43.7395 -1.14579 92.2233
lradius 44.2844
lwrist -4.01788
lhand -12.8548 3.45894
lfingers 7.12502
lthumb 13.2332 33.0189
rfemur -19.0374 -4.54811 19.2788
rtibia 43.1466
rfoot -30.8927 -17.3568
rtoes -35.455
lfemur -19.5283 -5.26735 -25.2381
ltibia 42.1306
lfoot -34.8642 1.94083
ltoes 6.31536
278
root 0.22267 17.0133 -18.8298 -162.947 -1.53591 176.915
lowerback 4.52597 0.151603 -1.23313
upperback -4.69738 0.0501901 1.34448
thorax -7.45964 0.071171 2.10508
lowerneck -17.2941 -2.18603 -2.97346
upperneck 10.3201 -2.3947 1.07072
head 5.98994 -1.19738 0.579914
rclavicle -2.78299e-015 -1.59028e-015
rhumerus -38.0288 7.6364 -92.3472
rradius 53.715
rwrist -4.60713
rhand -20.6626 -6.11672
rfingers 7.12502
rthumb 5.70015 -36.0201
lclavicle -2.78299e-015 -1.59028e-015
lhumerus -43.9221 -1.92814 92.5785
lradius 45.321
lwrist -3.56431
lhand -13.1069 3.27749
lfingers 7.12502
lthumb 12.9901 32.8531
rfemur -19.8237 -5.08199 19.0297
rtibia 44.8163
rfoot -30.6793 -17.0726
rtoes -35.7638
lfemur -19.4724 -5.04478 -25.4898
ltibia 42.2179
lfoot -35.0764 1.63068
ltoes 5.9953
279
root 0.21403 16.9799 -18.9095 -162.733 -1.55805 176.709
lowerback 4.89637 0.117896 -1.38643
upperback -4.67795 -0.00719005 1.2583
thorax -7.65244 0.0545897 2.10872
lowerneck -17.3604 -2.17884 -2.95411
upperneck 9.94176 -2.39916 1.15172
head 5.8807 -1.19172 0.603008
rclavicle 2.98177e-016 -1.82882e-014
rhumerus -38.2069 7.78698 -92.4964
rradius 54.804
rwrist -4.71729
rhand -20.749 -5.65396
rfingers 7.12502
rthumb 5.6167 -35.5595
lclavicle 2.98177e-016 -1.82882e-014
lhumerus -44.0868 -2.72444 92.9289
lradius 46.4068
lwrist -3.10883
lhand -13.3781 3.08272
lfingers 7.12502
lthumb 12.7287 32.6748
rfemur -20.7148 -5.6229 18.8058
rtibia 46.6606
rfoot -30.3593 -16.7569
rtoes -36.0141
lfemur -19.4272 -4.84153 -25.7169
ltibia 42.3328
lfoot -35.2936 1.3338
ltoes 5.72526
280
root 0.205327 16.9451 -18.9895 -162.527 -1.58221 176.519
lowerback 5.29217 0.0798744 -1.51338
upperback -4.64619 -0.0692897 1.17338
thorax -7.84666 0.0346869 2.09989
lowerneck -17.4411 -2.16899 -2.9463
upperneck 9.55362 -2.40102 1.25446
head 5.77121 -1.18436 0.634934
rclavicle 2.98177e-015 -3.81667e-014
rhumerus -38.3999 7.89019 -92.6273
rradius 55.9194
rwrist -4.78349
rhand -20.8551 -5.13806
rfingers 7.12502
rthumb 5.51426 -35.0463
lclavicle 2.98177e-015 -3.81667e-014
lhumerus -44.2328 -3.52892 93.2748
lradius 47.5262
lwrist -2.65564
lhand -13.6603 2.8844
lfingers 7.12502
lthumb 12.4566 32.4932
rfemur -21.6997 -6.17633 18.5979
rtibia 48.6653
rfoot -29.9354 -16.3995
rtoes -36.182
lfemur -19.3811 -4.6507 -25.932
ltibia 42.4757
lfoot -35.525 1.07858
ltoes 5.44448
281
root 0.19693 16.909 -19.0696 -162.329 -1.61218 176.343
lowerback 5.71623 0.0353318 -1.62016
upperback -4.59856 -0.139157 1.09034
thorax -8.04006 0.0103174 2.08321
lowerneck -17.5509 -2.1591 -2.94777
upperneck 9.16034 -2.40369 1.37636
head 5.66532 -1.17714 0.673998
rclavicle 6.36111e-015 1.35174e-014
rhumerus -38.5997 7.93926 -92.7371
rradius 57.0473
rwrist -4.80122
rhand -20.9902 -4.57036
rfingers 7.12502
rthumb 5.38383 -34.482
lclavicle 6.36111e-015 1.35174e-014
lhumerus -44.3448 -4.33365 93.6106
lradius 48.6664
lwrist -2.20616
lhand -13.9534 2.69698
lfingers 7.12502
lthumb 12.174 32.3227
rfemur -22.7784 -6.73307 18.4078
rtibia 50.8119
rfoot -29.4022 -16.0161
rtoes -36.2645
lfemur -19.3371 -4.45702 -26.1357
ltibia 42.6458
lfoot -35.7706 0.862112
ltoes 5.1452
282
root 0.188773 16.8712 -19.1504 -162.142 -1.64688 176.171
lowerback 6.1602 -0.016793 -1.71444
upperback -4.53568 -0.21905 1.00676
thorax -8.22832 -0.0194461 2.06084
lowerneck -17.6724 -2.14766 -2.96211
upperneck 8.75777 -2.4054 1.52187
head 5.5589 -1.16916 0.722503
rclavicle -3.18055e-015 7.95139e-015
rhumerus -38.807 7.92775 -92.8271
rradius 58.1625
rwrist -4.78108
rhand -21.1624 -3.97343
rfingers 7.12502
rthumb 5.21759 -33.8892
lclavicle -3.18055e-015 7.95139e-015
lhumerus -44.4261 -5.13441 93.9332
lradius 49.8146
lwrist -1.76188
lhand -14.2601 2.50416
lfingers 7.12502
lthumb 11.8783 32.1472
rfemur -23.9411 -7.29397 18.2257
rtibia 53.0777
rfoot -28.7832 -15.6302
rtoes -36.2917
lfemur -19.286 -4.25054 -26.3389
ltibia 42.8382
lfoot -36.0333 0.679944
ltoes 4.83449
283
root 0.181307 16.832 -19.232 -161.965 -1.68877 175.991
lowerback 6.62795 -0.0786783 -1.81394
upperback -4.45847 -0.313938 0.920299
thorax -8.41444 -0.0560905 2.04124
lowerneck -17.8047 -2.13138 -2.97694
upperneck 8.34673 -2.40298 1.67777
head 5.45168 -1.15957 0.774561
rclavicle 3.37934e-015 7.95139e-016
rhumerus -39.0234 7.85465 -92.8977
rradius 59.2499
rwrist -4.7399
rhand -21.3956 -3.34218
rfingers 7.12502
rthumb 4.99233 -33.2634
lclavicle 3.37934e-015 7.95139e-016
lhumerus -44.4756 -5.92153 94.2367
lradius 50.9674
lwrist -1.33572
lhand -14.5636 2.32064
lfingers 7.12502
lthumb 11.5856 31.9804
rfemur -25.1852 -7.85491 18.0423
rtibia 55.4381
rfoot -28.1483 -15.2307
rtoes -36.3116
lfemur -19.2275 -4.02434 -26.5516
ltibia 43.0498
lfoot -36.3066 0.518626
ltoes 4.5065
284
root 0.174824 16.7916 -19.3146 -161.796 -1.73573 175.789
lowerback 7.11824 -0.150684 -1.93554
upperback -4.36982 -0.426962 0.826787
thorax -8.60058 -0.100357 2.03029
lowerneck -17.941 -2.11139 -2.99227
upperneck 7.92541 -2.39827 1.84465
head 5.34203 -1.14936 0.830239
rclavicle 5.96354e-015 9.54166e-015
rhumerus -39.2436 7.7104 -92.9477
rradius 60.2787
rwrist -4.68767
rhand -21.7017 -2.67424
rfingers 7.12502
rthumb 4.69681 -32.6022
lclavicle 5.96354e-015 9.54166e-015
lhumerus -44.4902 -6.68962 94.5173
lradius 52.1134
lwrist -0.924044
lhand -14.8693 2.12285
lfingers 7.12502
lthumb 11.2908 31.799
rfemur -26.5129 -8.41108 17.845
rtibia 57.8637
rfoot -27.5485 -14.8275
rtoes -36.3963
lfemur -19.1651 -3.77215 -26.7865
ltibia 43.28
lfoot -36.5772 0.362227
ltoes 4.17552
285
root 0.169412 16.7501 -19.3985 -161.627 -1.77688 175.551
lowerback 7.62425 -0.230483 -2.09429
upperback -4.27363 -0.558041 0.720647
thorax -8.7868 -0.151619 2.03089
lowerneck -18.0777 -2.08631 -3.00166
upperneck 7.49513 -2.39024 2.01593
head 5.22961 -1.1384 0.886531
rclavicle -1.59028e-015 7.15625e-015
rhumerus -39.4652 7.49181 -92.9787
rradius 61.2234
rwrist -4.64648
rhand -22.0882 -1.97335
rfingers 7.12502
rthumb 4.32361 -31.9092
lclavicle -1.59028e-015 7.15625e-015
lhumerus -44.4668 -7.43679 94.7719
lradius 53.24
lwrist -0.519983
lhand -15.1822 1.888
lfingers 7.12502
lthumb 10.9891 31.5804
rfemur -27.9317 -8.95313 17.6189
rtibia 60.3252
rfoot -27.0359 -14.4051
rtoes -36.5331
lfemur -19.1103 -3.49152 -27.0579
ltibia 43.5327
lfoot -36.8357 0.185529
ltoes 3.86488
286
root 0.165349 16.7077 -19.4835 -161.458 -1.81394 175.281
lowerback 8.14684 -0.318093 -2.28773
upperback -4.1685 -0.707772 0.603296
thorax -8.97179 -0.210307 2.0436
lowerneck -18.2231 -2.05397 -3.00233
upperneck 7.06039 -2.37606 2.18698
head 5.11698 -1.12567 0.941738
rclavicle -9.14409e-015 1.51076e-014
rhumerus -39.6786 7.20153 -92.9882
rradius 62.0656
rwrist -4.64406
rhand -22.5292 -1.29114
rfingers 7.12502
rthumb 3.89779 -31.2352
lclavicle -9.14409e-015 1.51076e-014
lhumerus -44.3966 -8.15734 94.9969
lradius 54.3411
lwrist -0.132776
lhand -15.5016 1.60005
lfingers 7.12502
lthumb 10.681 31.3086
rfemur -29.4423 -9.47423 17.373
rtibia 62.7919
rfoot -26.6356 -13.9541
rtoes -36.705
lfemur -19.0697 -3.19049 -27.3568
ltibia 43.8158
lfoot -37.0749 -0.0306586
ltoes 3.59744
287
root 0.162616 16.6643 -19.5701 -161.288 -1.84436 174.986
lowerback 8.68931 -0.412692 -2.50742
upperback -4.05825 -0.875342 0.474611
thorax -9.16151 -0.276516 2.06389
lowerneck -18.3797 -2.01372 -2.99455
upperneck 6.63056 -2.3548 2.35861
head 5.00746 -1.1106 0.996212
rclavicle -1.49089e-014 -1.19271e-014
rhumerus -39.8886 6.83461 -92.9777
rradius 62.7816
rwrist -4.70662
rhand -23.004 -0.627066
rfingers 7.12502
rthumb 3.43919 -30.5791
lclavicle -1.49089e-014 -1.19271e-014
lhumerus -44.2771 -8.84919 95.1884
lradius 55.4116
lwrist 0.240222
lhand -15.8201 1.25517
lfingers 7.12502
lthumb 10.3737 30.9793
rfemur -31.043 -9.96873 17.116
rtibia 65.2339
rfoot -26.3627 -13.4828
rtoes -36.8986
lfemur -19.0483 -2.87479 -27.6748
ltibia 44.1415
lfoot -37.2921 -0.289071
ltoes 3.34614
288
root 0.160983 16.62 -19.658 -161.123 -1.87022 174.672
lowerback 9.25162 -0.514021 -2.74247
upperback -3.93758 -1.05939 0.337229
thorax -9.35001 -0.350252 2.08853
lowerneck -18.5508 -1.96833 -2.98122
upperneck 6.20017 -2.32972 2.53
head 4.89989 -1.09509 1.04985
rclavicle -1.07344e-014 -7.15625e-015
rhumerus -40.083 6.39805 -92.9422
rradius 63.3621
rwrist -4.84844
rhand -23.506 -0.0354434
rfingers 7.12502
rthumb 2.95447 -29.9947
lclavicle -1.07344e-014 -7.15625e-015
lhumerus -44.0956 -9.5097 95.3464
lradius 56.4476
lwrist 0.585236
lhand -16.1507 0.82932
lfingers 7.12502
lthumb 10.0548 30.5691
rfemur -32.7299 -10.4392 16.8567
rtibia 67.6234
rfoot -26.195 -13.0045
rtoes -37.0613
lfemur -19.0473 -2.55452 -28.0032
ltibia 44.5219
lfoot -37.4832 -0.581849
ltoes 3.04922
